<svg xmlns="http://www.w3.org/2000/svg" width="600" height="900" viewBox="0 0 600 900"><title>GLASS DISTRICT — fictional demo cover</title><defs><linearGradient id="sky" x2=".2" y2="1"><stop stop-color="#101f45"/><stop offset="1" stop-color="#514195"/></linearGradient><linearGradient id="shade" x2="0" y2="1"><stop stop-color="#101f45" stop-opacity="0"/><stop offset=".7" stop-color="#101f45" stop-opacity=".96"/></linearGradient></defs><rect width="600" height="900" fill="url(#sky)"/><rect x="25" y="25" width="550" height="850" rx="3" fill="none" stroke="#a1d3ff" opacity=".25"/><circle cx="402" cy="253" r="86" fill="#94c2ff" opacity=".7"/><g fill="#172341" stroke="#749bd3" stroke-width="2"><path d="M35 588 V330 H113 V588 M142 588 V266 H216 V588 M251 588 V374 H327 V588 M355 588 V300 H434 V588 M471 588 V382 H560 V588"/></g><g fill="#9fe7ef" opacity=".8"><rect x="52" y="390" width="16" height="8"/><rect x="185" y="390" width="16" height="8"/><rect x="318" y="390" width="16" height="8"/><rect x="451" y="390" width="16" height="8"/><rect x="52" y="413" width="16" height="8"/><rect x="185" y="413" width="16" height="8"/><rect x="318" y="413" width="16" height="8"/><rect x="451" y="413" width="16" height="8"/><rect x="52" y="436" width="16" height="8"/><rect x="185" y="436" width="16" height="8"/><rect x="318" y="436" width="16" height="8"/><rect x="451" y="436" width="16" height="8"/><rect x="52" y="459" width="16" height="8"/><rect x="185" y="459" width="16" height="8"/><rect x="318" y="459" width="16" height="8"/><rect x="451" y="459" width="16" height="8"/><rect x="52" y="482" width="16" height="8"/><rect x="185" y="482" width="16" height="8"/><rect x="318" y="482" width="16" height="8"/><rect x="451" y="482" width="16" height="8"/><rect x="52" y="505" width="16" height="8"/><rect x="185" y="505" width="16" height="8"/><rect x="318" y="505" width="16" height="8"/><rect x="451" y="505" width="16" height="8"/><rect x="52" y="528" width="16" height="8"/><rect x="185" y="528" width="16" height="8"/><rect x="318" y="528" width="16" height="8"/><rect x="451" y="528" width="16" height="8"/><rect x="52" y="551" width="16" height="8"/><rect x="185" y="551" width="16" height="8"/><rect x="318" y="551" width="16" height="8"/><rect x="451" y="551" width="16" height="8"/></g><path d="M0 589 L268 490 H334 L600 589" fill="#1a2542"/><path d="M175 588 L289 508 M425 588 L314 508" stroke="#b48cec" stroke-width="5"/><rect y="575" width="600" height="325" fill="url(#shade)"/><g font-family="sans-serif" text-anchor="middle"><text x="300" y="230" fill="#a1d3ff" font-size="16" letter-spacing="6">DEMO / 07</text><text x="300" y="615" fill="#ffffff" font-size="53" font-weight="700" letter-spacing="3">GLASS</text><text x="300" y="665" fill="#ffffff" font-size="53" font-weight="700" letter-spacing="3">DISTRICT</text><path d="M260 687 H340" stroke="#a1d3ff" stroke-width="3"/><text x="300" y="710" fill="#a1d3ff" font-size="15" letter-spacing="5">ADVENTURE</text></g></svg>
